<svg xmlns="http://www.w3.org/2000/svg" width="2048" height="865" viewBox="0 0 2048 865" fill="none">
  <title>研行 YANXING 完整品牌标志平滑版</title>
  <desc>中文和英文从高分辨率原稿重新描摹为优化贝塞尔曲线，统一深蓝纯色；透明背景且无嵌入位图。</desc>
  <defs>
    <linearGradient id="left-color" x1="101" y1="24" x2="101" y2="524" gradientUnits="userSpaceOnUse">
      <stop offset="0" stop-color="#68B0E1"/>
      <stop offset="0.34" stop-color="#5DA5D7"/>
      <stop offset="0.68" stop-color="#4780B9"/>
      <stop offset="1" stop-color="#2E5D95"/>
    </linearGradient>
    <linearGradient id="upper-color" x1="500" y1="24" x2="286" y2="370" gradientUnits="userSpaceOnUse">
      <stop offset="0" stop-color="#66ACDC"/>
      <stop offset="0.33" stop-color="#5595CD"/>
      <stop offset="0.68" stop-color="#3E73B3"/>
      <stop offset="1" stop-color="#2D5892"/>
    </linearGradient>
    <linearGradient id="pillar-color" x1="434" y1="361" x2="434" y2="635" gradientUnits="userSpaceOnUse">
      <stop offset="0" stop-color="#183A65"/>
      <stop offset="0.42" stop-color="#132F56"/>
      <stop offset="1" stop-color="#0E2546"/>
    </linearGradient>
    <linearGradient id="swoosh-color" x1="76" y1="646" x2="550" y2="292" gradientUnits="userSpaceOnUse">
      <stop offset="0" stop-color="#5599D2"/>
      <stop offset="0.28" stop-color="#3E76B6"/>
      <stop offset="0.54" stop-color="#26518A"/>
      <stop offset="0.78" stop-color="#2F5D9B"/>
      <stop offset="1" stop-color="#4A82C1"/>
    </linearGradient>
  
  </defs>
  <g id="symbol" transform="translate(-30 0) scale(1.34)">
    <path id="left-panel" fill="url(#left-color)" d="M42 24L242 142L166 186C157 191 152 200 152 210V426C110 450 70 482 42 524V24Z"/>
    <path id="upper-panel" fill="url(#upper-color)" d="M500 24L288 146C275 154 268 166 268 181V370L471 308C490 302 500 293 500 276V24Z"/>
    <path id="lower-pillar" fill="url(#pillar-color)" d="M359 432C392 414 428 396 469 378C482 372 494 367 504 361V635H364V438L359 432Z"/>
    <path id="swoosh" fill="url(#swoosh-color)" d="M42 635C52 596 69 558 94 526C130 480 177 450 228 424C286 396 351 374 418 354L468 338C497 329 518 317 529 304C537 295 537 286 531 279C525 272 516 268 504 265C529 269 543 279 552 293C561 308 555 324 543 337C527 354 500 369 467 384C427 402 393 419 366 434L359 439C345 447 322 462 300 478C268 502 245 532 232 564C222 590 222 614 226 635H42Z"/>
  
  </g>
  <g id="wordmark" transform="matrix(0.63661796705 0 0 0.636966126657 827.603357165 0)">
    <path id="wordmark-smooth" d="
    M 1285.500 298.787 C 1284.400 299.733 1282.175 302.305 1280.554 304.503 C 1278.934 306.701 1274.641 311.650 1271.013 315.500 C 1267.386 319.350 1262.636 324.745 1260.459 327.488 C 1258.281 330.232 1255.825 333.172 1255 334.023 C 1252.653 336.443 1234.838 357.311 1231.500 361.551 C 1229.850 363.647 1226.753 367.193 1224.618 369.431 C 1222.483 371.669 1219.123 375.525 1217.152 378 C 1215.181 380.475 1211.528 384.777 1209.034 387.560 C 1200.621 396.950 1188 411.864 1188 412.417 C 1188 412.719 1186.462 414.661 1184.582 416.733 C 1180.991 420.691 1173.140 429.429 1161.606 442.305 C 1157.815 446.538 1153.710 451.360 1152.485 453.021 C 1151.259 454.682 1147.837 458.649 1144.878 461.837 C 1141.920 465.025 1137.950 469.628 1136.057 472.066 C 1134.163 474.505 1129.401 480.100 1125.476 484.500 C 1121.551 488.900 1114.811 496.775 1110.500 502 C 1106.188 507.225 1101.178 512.625 1099.367 514 C 1097.555 515.375 1096.056 517.326 1096.036 518.335 L 1096 520.169 1139.750 519.948 C 1163.813 519.827 1184.175 520.016 1185 520.369 C 1185.927 520.766 1187.508 519.959 1189.138 518.256 C 1197.556 509.464 1200.701 505.941 1204.543 501 C 1206.894 497.975 1210.322 493.905 1212.159 491.956 C 1213.997 490.007 1218.200 485.312 1221.500 481.522 C 1224.800 477.733 1229.188 472.843 1231.250 470.657 C 1233.313 468.471 1235 466.410 1235 466.078 C 1235 465.745 1237.010 463.454 1239.467 460.987 C 1241.924
    458.519 1243.949 456.153 1243.967 455.729 C 1243.985 455.304 1246.539 452.379 1249.641 449.229 C 1252.744 446.078 1258.706 439.456 1262.891 434.513 C 1267.076 429.570 1272.248 423.720 1274.383 421.513 C 1276.519 419.306 1279.409 415.925 1280.805 414 C 1282.201 412.075 1284.953 408.887 1286.922 406.915 C 1288.890 404.944 1292.750 400.348 1295.500 396.702 C 1298.250 393.056 1301.063 390.057 1301.750 390.037 C 1302.438 390.016 1303 389.535 1303 388.967 C 1303 388.398 1304.686 386.261 1306.747 384.217 C 1308.808 382.173 1312.746 377.797 1315.497 374.492 C 1323.402 364.999 1324.279 363.975 1328.238 359.616 C 1330.293 357.352 1331.981 355.229 1331.988 354.898 C 1331.994 354.567 1333.237 352.961 1334.750 351.328 C 1336.263 349.696 1339.750 345.726 1342.500 342.507 C 1347.537 336.612 1359.902 322.928 1361.031 322 C 1362.111 321.113 1370.468 309.831 1371.487 307.885 C 1372.030 306.848 1372.824 306 1373.251 306 C 1374.444 306 1379.938 299.664 1379.971 298.250 C 1379.994 297.267 1370.116 297.007 1333.750 297.033 L 1287.500 297.067 1285.500 298.787 M 109 354 L 109 369 176.500 369 C 233.167 369 244 369.221 244 370.378 C 244 371.135 243.369 372.279 242.598 372.919 C 241.827 373.558 240.898 375.271 240.533 376.724 C 240.169 378.176 238.999 381.168 237.935 383.370 C 236.871 385.573 236 387.874 236 388.482 C 236 389.091 234.182 393.394 231.960 398.044 C 229.739 402.695 226.773 408.975
    225.369 412 C 223.966 415.025 222.406 418.175 221.903 419 C 221.399 419.825 220.716 421.175 220.384 422 C 215.990 432.928 202.518 460.559 200.355 463.079 C 199.610 463.947 199 465.100 199 465.642 C 199 466.990 187.499 488.920 182.030 498 C 181.533 498.825 180.497 500.850 179.727 502.500 C 176.929 508.497 170.803 519.538 169.419 521.079 C 168.638 521.947 168 522.904 168 523.206 C 168 524.087 156.670 544.124 153.707 548.482 C 152.218 550.672 151 552.743 151 553.084 C 151 553.425 148.531 557.708 145.512 562.602 C 142.494 567.496 139.330 573.051 138.481 574.946 C 137.633 576.842 135.814 579.866 134.441 581.667 C 133.067 583.468 130.431 587.767 128.583 591.221 C 125.207 597.530 118.508 608.055 113.129 615.500 C 111.539 617.700 109.497 620.850 108.590 622.500 C 107.683 624.150 104.935 628.200 102.484 631.500 C 100.032 634.800 97.371 638.886 96.571 640.580 C 95.770 642.273 94.415 644.241 93.558 644.952 C 92.701 645.663 92 646.824 92 647.533 C 92 648.241 90.200 651.098 88 653.881 C 85.800 656.664 83.982 659.292 83.959 659.721 C 83.937 660.149 82.699 662.118 81.209 664.096 C 79.719 666.074 77.028 669.642 75.230 672.025 C 72.781 675.268 72.278 676.559 73.230 677.163 C 73.928 677.607 89.705 677.976 108.288 677.985 L 142.077 678 144.788 673.571 C 146.280 671.136 148.459 668.695 149.630 668.147 L 151.760 667.152 152.522 738.826 C 152.942 778.247 153.027 856.259 152.713 912.186 C 152.236
    997.024 152.366 1014.058 153.496 1014.996 C 155.420 1016.593 327.091 1015.984 329.097 1014.373 C 329.869 1013.753 335.135 1013.033 340.800 1012.773 C 346.588 1012.507 351.604 1011.796 352.250 1011.150 C 352.883 1010.517 354.372 1010 355.560 1010 C 356.749 1010 359.379 1008.875 361.405 1007.500 C 363.431 1006.125 366.167 1005 367.485 1005 C 368.804 1005 370.131 1004.597 370.436 1004.104 C 370.741 1003.611 372.680 1002.324 374.745 1001.246 C 382.004 997.454 401 979.216 401 976.038 C 401 975.522 401.605 974.740 402.345 974.300 C 403.084 973.860 404.501 971.348 405.493 968.717 C 406.485 966.087 407.680 963.698 408.148 963.408 C 408.617 963.119 409 962.064 409 961.063 C 409 960.063 409.602 958.745 410.338 958.134 C 411.796 956.924 413.083 951.641 415.484 937 L 417.042 927.500 416.743 776.500 L 416.445 625.500 414.749 617.278 C 413.692 612.147 411.311 605.568 408.417 599.778 C 402.215 587.369 392.674 577.952 379.750 571.482 C 374.825 569.017 369.688 567 368.333 567 C 366.977 567 364.900 566.482 363.717 565.848 C 357.371 562.452 321.742 560.860 269.750 561.648 L 228 562.282 228 560.535 C 228 559.574 229.288 557.148 230.861 555.144 C 232.435 553.140 235.359 548.453 237.359 544.729 C 239.359 541.005 242.797 535.106 244.998 531.621 C 247.199 528.135 249 525.029 249 524.717 C 249 524.405 251.637 519.504 254.859 513.825 C 258.081 508.146 261.923 501.250 263.396 498.500 C 264.869
    495.750 267.362 491.250 268.936 488.500 C 270.510 485.750 272.556 481.925 273.482 480 C 274.409 478.075 275.568 475.825 276.060 475 C 276.551 474.175 278.458 470.575 280.298 467 C 282.137 463.425 284.621 458.925 285.817 457 C 287.014 455.075 287.994 452.768 287.996 451.872 C 287.998 450.977 288.675 449.685 289.500 449 C 290.325 448.315 291 447.155 291 446.422 C 291 445.689 292.125 443.431 293.500 441.405 C 294.875 439.379 296 436.939 296 435.983 C 296 435.027 296.675 433.685 297.500 433 C 298.325 432.315 299 431.111 299 430.325 C 299 429.538 300.125 427.238 301.500 425.215 C 302.875 423.191 304 420.570 304 419.390 C 304 418.210 304.675 416.685 305.500 416 C 306.325 415.315 307 414.142 307 413.392 C 307 411.907 312.660 400.422 314.585 398 C 315.241 397.175 316.081 395.069 316.453 393.319 C 316.825 391.570 317.775 389.602 318.564 388.947 C 319.354 388.291 320 386.755 320 385.533 C 320 384.310 320.900 382.495 322 381.500 C 323.100 380.505 324 378.470 324 376.980 C 324 375.489 324.933 373.084 326.073 371.635 L 328.145 369 379.073 369 L 430 369 430 354 L 430 339 269.500 339 L 109 339 109 354 M 471.059 354.250 L 471.140 369 509.573 369 L 548.007 369 547.754 507.209 L 547.500 645.418 544 646.136 C 542.075 646.531 519.913 647.180 494.750 647.577 L 449 648.301 449 662.150 C 449 669.768 449 676.337 448.999 676.750 C 448.999 677.163 470.937 677.725 497.749 678 L 546.500 678.500
    546.289 682 C 546.173 683.925 545.824 692.925 545.514 702 C 545.204 711.075 544.278 725.475 543.456 734 C 542.633 742.525 541.464 754.675 540.858 761 C 540.251 767.325 539.312 774.300 538.770 776.500 C 538.228 778.700 537.192 785.900 536.467 792.500 C 535.255 803.545 534.206 808.778 530.451 822.500 C 529.699 825.250 528.809 829.750 528.474 832.500 C 527.809 837.955 526.057 844.917 524.951 846.500 C 524.567 847.050 523.926 849.750 523.527 852.500 C 523.129 855.250 522.332 858.379 521.757 859.454 C 521.182 860.529 520.126 863.454 519.410 865.954 C 517.137 873.894 514.077 882.412 512.513 885.154 C 511.681 886.614 511 888.697 511 889.782 C 511 890.867 510.383 892.267 509.628 892.894 C 508.874 893.520 508.001 895.604 507.690 897.526 C 507.378 899.447 506.195 902.322 505.061 903.914 C 503.928 905.506 503 907.555 503 908.467 C 503 910.739 497.006 923 495.895 923 C 495.403 923 495 923.907 495 925.015 C 495 926.123 493.630 929.386 491.955 932.265 C 490.280 935.144 488.556 938.175 488.124 939 C 485.013 944.933 483.435 948.013 481.720 951.500 C 480.638 953.700 478.290 957.525 476.503 960 C 474.715 962.475 472.960 965.453 472.601 966.618 C 472.242 967.783 471.060 969.540 469.974 970.523 C 468.889 971.506 468 972.690 468 973.154 C 468 973.955 459.947 984.919 457.210 987.844 C 456.501 988.602 453.251 992.659 449.987 996.861 C 441.095 1008.308 437.785 1011.799 434.750 1012.928 C 433.238
    1013.490 432 1014.461 432 1015.085 C 432 1016.561 446.812 1015.899 447.800 1014.379 C 448.185 1013.786 451.721 1013.038 455.658 1012.717 C 459.595 1012.395 463.645 1011.696 464.658 1011.163 C 465.671 1010.631 468.419 1009.627 470.764 1008.933 C 473.110 1008.238 475.527 1007.070 476.137 1006.335 C 476.746 1005.601 478.211 1005 479.391 1005 C 484.780 1005 506.029 993.883 513.813 986.992 C 515.672 985.347 517.503 984 517.881 984 C 518.642 984 522.586 980.836 530.369 973.982 C 539.357 966.066 555.017 948.277 557.659 942.981 C 558.477 941.342 559.454 940 559.829 940 C 560.205 940 561.144 938.537 561.916 936.750 C 562.689 934.962 564.605 931.852 566.175 929.838 C 567.744 927.824 569.704 924.674 570.529 922.838 C 571.354 921.002 572.586 918.617 573.265 917.538 C 577.525 910.769 579 907.800 579 905.988 C 579 904.860 579.611 903.703 580.357 903.416 C 581.104 903.130 582.314 901.007 583.047 898.698 C 583.780 896.389 584.969 893.612 585.690 892.527 C 586.410 891.443 587 889.714 587 888.685 C 587 887.657 587.849 885.736 588.887 884.416 C 589.925 883.097 591.068 880.326 591.428 878.259 C 591.788 876.191 592.699 873.150 593.453 871.500 C 594.208 869.850 595.360 866.475 596.015 864 C 596.669 861.525 597.834 858.306 598.602 856.846 C 599.371 855.386 600 853.123 600 851.818 C 600 850.513 600.611 848.557 601.358 847.473 C 602.105 846.388 603.288 842.350 603.986 838.500 C 604.685 834.650
    605.874 830.082 606.628 828.349 C 607.383 826.616 608 824.014 608 822.567 C 608 821.121 608.868 817.362 609.928 814.214 C 610.988 811.066 612.176 804.443 612.568 799.496 C 612.960 794.548 613.708 789.375 614.230 788 C 616.797 781.249 620.726 729.469 621.288 695 L 621.557 678.500 688.528 678.500 L 755.500 678.500 755.753 849.750 L 756.006 1021 793.014 1021 L 830.022 1021 829.761 849.500 L 829.500 678 880.367 678 L 931.233 678 930.630 675.750 C 930.299 674.513 930.021 667.621 930.014 660.435 L 930 647.371 882.250 647.124 C 855.987 646.987 833.487 646.630 832.250 646.330 L 830 645.783 830 507.392 L 830 369 869.250 368.997 L 908.500 368.995 908.500 354.247 L 908.500 339.500 689.740 339.500 L 470.979 339.500 471.059 354.250 M 1462.250 344.720 L 1439 345.037 1439.006 351.768 C 1439.009 355.471 1439.301 362.214 1439.654 366.752 L 1440.297 375.005 1656.253 374.752 L 1872.210 374.500 1872.056 360.034 C 1871.971 352.078 1871.811 345.501 1871.701 345.419 C 1871.256 345.087 1483.841 344.426 1462.250 344.720 M 623.742 507.243 C 623.875 583.284 624.207 646.087 624.481 646.804 C 624.886 647.864 636.450 648.018 686.239 647.626 C 719.933 647.360 749.300 646.766 751.500 646.305 L 755.500 645.466 755.500 507.483 L 755.500 369.500 689.500 369.243 L 623.500 368.986 623.742 507.243 M 1293 481.858 C 1285.019 482.615 1283 483.334 1283 485.419 C 1283 486.551 1281.684 488.212 1274.621 496 C 1273.872
    496.825 1267.355 504.925 1260.139 514 C 1252.922 523.075 1245.734 531.850 1244.166 533.500 C 1242.598 535.150 1239.799 538.525 1237.946 541 C 1236.092 543.475 1233.096 547.062 1231.288 548.971 C 1229.480 550.880 1228 552.769 1228 553.169 C 1228 553.919 1218.473 565.722 1216.433 567.500 C 1215.801 568.050 1211.094 573.675 1205.972 580 C 1200.850 586.325 1196.157 591.950 1195.543 592.500 C 1194.929 593.050 1193.322 595.075 1191.972 597 C 1190.622 598.925 1187.488 602.845 1185.008 605.711 C 1182.529 608.577 1178.593 613.302 1176.262 616.211 C 1173.931 619.120 1167.724 626.675 1162.469 633 C 1157.213 639.325 1151.470 646.265 1149.707 648.423 C 1147.943 650.580 1145.128 653.955 1143.450 655.923 C 1141.773 657.890 1138.854 661.525 1136.963 664 C 1134.152 667.679 1125.577 678.119 1115.196 690.500 C 1105.927 701.555 1096 714.560 1096 715.648 C 1096 716.763 1103.621 717 1139.535 717 L 1183.070 717 1185.535 715.385 C 1186.891 714.497 1188 713.331 1188 712.794 C 1188 712.258 1189.938 709.497 1192.306 706.659 C 1194.674 703.822 1197.384 700.263 1198.329 698.750 C 1201.215 694.129 1202.641 695.266 1203.348 702.750 C 1203.699 706.462 1203.989 779.587 1203.993 865.250 L 1204 1021 1242 1021 L 1280 1021 1280.250 919.250 C 1280.388 863.288 1280.331 770.475 1280.124 713 L 1279.748 608.500 1281.559 604 C 1282.555 601.525 1284.840 597.925 1286.637 596 C 1293.474 588.674 1297.976 583.478
    1297.988 582.898 C 1297.994 582.567 1299.352 580.767 1301.004 578.898 C 1305.146 574.214 1305.584 573.685 1315.545 561.384 C 1320.392 555.398 1326.302 548.382 1328.679 545.793 C 1331.056 543.204 1333 540.725 1333 540.283 C 1333 539.842 1335.733 536.560 1339.073 532.990 C 1342.413 529.421 1346.356 524.700 1347.836 522.500 C 1349.315 520.300 1352.205 516.700 1354.258 514.500 C 1356.311 512.300 1357.993 510.171 1357.995 509.768 C 1357.998 509.366 1359.534 507.457 1361.409 505.526 C 1363.284 503.595 1366.541 499.649 1368.647 496.758 C 1370.752 493.866 1373.943 490.097 1375.737 488.382 C 1379.142 485.128 1379.876 483.110 1377.750 482.843 C 1377.063 482.757 1375.375 482.558 1374 482.401 C 1367.694 481.680 1299.676 481.224 1293 481.858 M 1654.747 566.997 L 1403.995 567.500 1404.282 580.201 C 1404.440 587.187 1404.929 593.262 1405.368 593.701 C 1405.807 594.141 1471.942 594.597 1552.333 594.715 L 1698.500 594.929 1699.162 599.715 C 1699.527 602.347 1699.867 673.575 1699.919 758 L 1700.013 911.500 1698.400 920.500 C 1696.276 932.348 1692.200 945.906 1689.867 948.885 C 1688.840 950.197 1688 951.950 1688 952.782 C 1688 956.369 1671.202 973.841 1662.211 979.607 C 1659.070 981.621 1655.281 984.109 1653.790 985.135 C 1652.300 986.161 1650.761 987 1650.369 987 C 1649.978 987 1648.947 987.629 1648.079 988.397 C 1647.210 989.165 1643.575 990.704 1640 991.816 C 1636.425 992.928 1630.350
    994.964 1626.500 996.340 C 1622.650 997.716 1616.800 999.134 1613.500 999.491 C 1610.200 999.848 1606.375 1000.507 1605 1000.954 C 1597.639 1003.350 1593.501 1004.124 1583.500 1004.974 C 1577.450 1005.487 1568.675 1006.365 1564 1006.924 C 1559.325 1007.482 1551.112 1008.220 1545.750 1008.563 L 1536 1009.187 1536 1011.093 L 1536 1013 1542.935 1013 C 1546.749 1013 1551.006 1013.432 1552.396 1013.960 C 1554.764 1014.861 1561.472 1015.618 1601.500 1019.501 C 1619.999 1021.296 1664.051 1021.550 1674 1019.920 C 1677.575 1019.334 1684.325 1018.452 1689 1017.961 C 1701.433 1016.654 1704.795 1015.952 1706.087 1014.395 C 1706.724 1013.628 1708.794 1013 1710.687 1013 C 1714.080 1013 1724.079 1009.039 1727 1006.537 C 1727.825 1005.831 1730.133 1004.729 1732.129 1004.089 C 1734.125 1003.449 1736.557 1002.042 1737.534 1000.962 C 1738.511 999.883 1739.862 999 1740.536 999 C 1742.588 999 1759.506 981.647 1763.895 975.039 C 1768.068 968.757 1774.428 955.993 1776.123 950.500 C 1776.632 948.850 1777.938 943.471 1779.024 938.547 L 1781 929.594 1781 762.913 L 1781 596.233 1783.750 595.598 C 1785.263 595.249 1814.063 594.680 1847.750 594.333 L 1909 593.703 1909 579.852 L 1909 566 1907.250 566.247 C 1906.287 566.383 1792.661 566.720 1654.747 566.997 M 230.250 592.627 L 228 593.139 228 790.447 L 228 987.755 229.654 989.128 C 230.941 990.196 235.979 990.497 252.404 990.488 L 273.500 990.477 276.700
    988.738 C 278.461 987.782 281.357 987 283.137 987 C 287.294 987 300.609 983.420 304.500 981.256 C 306.150 980.338 308.861 978.893 310.524 978.044 C 318.585 973.929 329.246 962.809 334.346 953.197 C 338.365 945.623 341.103 931.242 342.094 912.500 C 343.180 891.968 342.978 669.784 341.852 645.500 C 340.692 620.505 336.549 610.423 323.619 601.129 C 318.031 597.112 313.753 595.264 307 593.949 C 302.039 592.983 233.847 591.808 230.250 592.627 M 1767 1154.306 C 1766.725 1154.581 1762.384 1155.303 1757.354 1155.911 C 1743.574 1157.575 1730.928 1163.427 1721.501 1172.500 C 1713.054 1180.629 1710.854 1183.883 1706.172 1195.173 C 1701.266 1207.003 1699.744 1218.934 1701.112 1234.829 L 1702 1245.158 1706.199 1254.329 C 1711.821 1266.607 1714.491 1270.383 1723.407 1278.656 C 1728.471 1283.356 1732.368 1286.090 1735.230 1286.951 C 1737.579 1287.658 1741.750 1289.178 1744.500 1290.330 L 1749.500 1292.425 1766.660 1292.810 C 1780.461 1293.119 1784.962 1292.871 1789.660 1291.544 C 1798.073 1289.165 1807.005 1284.394 1812.517 1279.333 C 1815.151 1276.914 1817.796 1275.099 1818.395 1275.298 C 1819.084 1275.528 1819.364 1278.245 1819.157 1282.719 C 1818.940 1287.409 1819.229 1290.024 1820.019 1290.512 C 1820.672 1290.916 1823.860 1291.367 1827.104 1291.515 L 1833 1291.784 1833 1256.258 L 1833 1220.731 1814.750 1221.347 C 1804.713 1221.685 1791.416 1221.970 1785.202 1221.981 L 1773.905 1222
    1774.202 1228.244 L 1774.500 1234.488 1777.500 1235.125 C 1779.150 1235.476 1788.556 1235.817 1798.402 1235.882 L 1816.304 1236 1815.666 1246.429 L 1815.028 1256.859 1811.965 1261.397 C 1807.973 1267.312 1803.350 1271.041 1794.334 1275.617 L 1786.989 1279.345 1771.744 1279.423 L 1756.500 1279.500 1746.656 1274.547 C 1735.500 1268.934 1731.282 1264.850 1726.343 1254.875 C 1718.246 1238.528 1716.618 1223.920 1721.007 1207 C 1722.618 1200.789 1724.882 1195.190 1727.548 1190.828 C 1731.529 1184.311 1738.156 1177.720 1741.930 1176.522 C 1742.967 1176.193 1744.068 1175.266 1744.376 1174.462 C 1744.685 1173.658 1745.976 1173 1747.246 1173 C 1748.516 1173 1750.662 1172.225 1752.014 1171.277 C 1755.529 1168.816 1785.294 1168.666 1789.041 1171.092 C 1790.393 1171.967 1792.760 1172.994 1794.300 1173.373 C 1797.969 1174.277 1809.432 1185.788 1811.011 1190.154 C 1812.635 1194.645 1815.812 1196 1824.718 1196 L 1832.038 1196 1831.377 1193.250 C 1830.419 1189.262 1827.121 1183 1825.980 1183 C 1825.441 1183 1825 1182.399 1825 1181.664 C 1825 1179.424 1818.107 1171.323 1812.652 1167.153 C 1805.866 1161.964 1794.254 1157.258 1784.977 1155.937 C 1773.433 1154.294 1767.548 1153.760 1767 1154.306 M 252.028 1157.112 C 250.669 1157.655 249.246 1158.602 248.867 1159.216 C 246.345 1163.295 223.363 1194.710 221.517 1196.600 C 220.926 1197.205 218.881 1200.302 216.972 1203.483 C 215.062 1206.663
    212.113 1210.893 210.417 1212.883 C 208.721 1214.872 207.048 1217.287 206.698 1218.250 C 205.941 1220.336 202 1220.615 202 1218.583 C 202 1217.804 201.556 1217.017 201.014 1216.833 C 200.471 1216.650 198.109 1213.506 195.764 1209.846 C 187.516 1196.976 179.459 1185.465 175.500 1180.899 C 169.769 1174.288 168 1172.053 168 1171.422 C 168 1171.116 166.875 1169.392 165.500 1167.589 C 164.125 1165.786 163 1164.062 163 1163.758 C 163 1163.454 161.775 1161.809 160.277 1160.103 L 157.555 1157 147.777 1157 C 141.265 1157 138 1157.372 138 1158.113 C 138 1158.725 139.142 1160.637 140.538 1162.363 C 145.165 1168.083 150.446 1174.894 154.785 1180.733 C 157.142 1183.905 164.961 1194.375 172.160 1204 C 179.359 1213.625 187.331 1224.414 189.875 1227.975 L 194.500 1234.449 195 1262.975 L 195.500 1291.500 201.500 1291.811 C 204.800 1291.982 208.963 1291.849 210.750 1291.516 L 214 1290.909 214 1262.198 L 214 1233.486 220.930 1224.493 C 224.741 1219.547 229.282 1213.700 231.020 1211.500 C 237.138 1203.756 247.054 1190.439 250.753 1185 C 252.811 1181.975 255.049 1179.145 255.728 1178.711 C 256.406 1178.277 258.138 1175.915 259.576 1173.461 C 261.014 1171.008 262.521 1169 262.926 1169 C 264.107 1169 270 1160.326 270 1158.587 C 270 1157.303 268.776 1157 263.582 1157 C 260.052 1157 256.564 1156.803 255.832 1156.563 C 255.099 1156.322 253.388 1156.569 252.028 1157.112 M 462.466 1160.054 C 461.110
    1162.008 459.997 1164.258 459.993 1165.054 C 459.990 1165.849 459.093 1167.850 458 1169.500 C 456.907 1171.150 456.010 1173.457 456.007 1174.628 C 456.003 1175.798 455.398 1177.255 454.662 1177.866 C 453.926 1178.476 452.762 1180.894 452.075 1183.238 C 451.389 1185.582 450.262 1188.400 449.572 1189.500 C 448.881 1190.600 447.985 1192.850 447.580 1194.500 C 447.175 1196.150 446.261 1198.175 445.549 1199 C 444.836 1199.825 443.713 1202.181 443.053 1204.236 C 442.394 1206.291 441.437 1208.230 440.927 1208.545 C 440.417 1208.860 440 1209.795 440 1210.622 C 440 1212.462 434.131 1224.801 432.892 1225.567 C 432.401 1225.870 432 1227.154 432 1228.419 C 432 1229.685 430.921 1232.310 429.603 1234.253 C 428.285 1236.196 426.901 1239.173 426.528 1240.870 C 425.910 1243.687 422.895 1250.277 420.522 1254 C 419.997 1254.825 418.495 1258.425 417.186 1262 C 415.877 1265.575 414.200 1270.120 413.460 1272.100 C 412.719 1274.079 410.513 1278.430 408.557 1281.768 C 403.542 1290.325 403.716 1291 410.941 1291 C 414.209 1291 417.160 1291.450 417.500 1292 C 419.631 1295.448 425.431 1290.269 426.645 1283.834 C 426.991 1282 427.775 1279.825 428.387 1279 C 430.595 1276.024 432 1272.992 432 1271.205 C 432 1270.202 432.661 1268.509 433.468 1267.441 C 434.276 1266.374 434.951 1264.732 434.968 1263.794 C 434.986 1262.856 436.125 1260.431 437.500 1258.405 C 438.875 1256.379 440 1253.936 440 1252.977 C 440
    1251.573 441.217 1251.109 446.250 1250.594 C 457.851 1249.407 503.020 1248.940 504.975 1249.987 C 506.001 1250.536 507.361 1252.563 507.997 1254.492 C 508.634 1256.422 509.570 1258 510.078 1258 C 510.585 1258 511 1258.703 511 1259.562 C 511 1260.993 512.980 1265.768 518.071 1276.610 C 519.132 1278.870 520.007 1281.345 520.016 1282.110 C 520.025 1282.874 521.038 1285.259 522.266 1287.408 L 524.500 1291.317 531 1291.669 C 534.575 1291.862 538.720 1292.226 540.211 1292.478 C 541.702 1292.729 543.164 1292.543 543.460 1292.064 C 543.999 1291.193 540.216 1282.218 538.287 1279.791 C 537.722 1279.081 536.742 1276.888 536.108 1274.918 C 534.945 1271.303 531.909 1264.926 530.293 1262.704 C 529.811 1262.042 528.841 1259.700 528.137 1257.500 C 526.618 1252.757 525.648 1250.527 519.656 1238 C 517.157 1232.775 514.648 1227.263 514.081 1225.750 C 513.514 1224.237 512.588 1223 512.025 1223 C 511.461 1223 511 1222.057 511 1220.904 C 511 1219.752 510.345 1217.614 509.545 1216.154 C 507.450 1212.333 503.323 1202.924 502.459 1200 C 502.053 1198.625 500.883 1195.932 499.860 1194.015 C 498.837 1192.098 498 1190.016 498 1189.387 C 498 1188.759 497.379 1187.730 496.621 1187.100 C 495.862 1186.470 494.974 1184.618 494.647 1182.983 C 494.320 1181.349 493.141 1178.125 492.026 1175.818 C 490.912 1173.512 490 1171.089 490 1170.435 C 490 1169.780 489.325 1168.685 488.500 1168 C 487.675 1167.315 487
    1165.977 487 1165.025 C 487 1164.074 485.969 1161.767 484.709 1159.898 L 482.418 1156.500 473.675 1156.500 L 464.932 1156.500 462.466 1160.054 M 802.986 1209.250 C 802.979 1238.537 802.701 1263.513 802.370 1264.750 C 802.038 1265.987 801.364 1267 800.871 1267 C 800.378 1267 798.336 1264.412 796.333 1261.250 C 794.330 1258.088 790.574 1252.800 787.986 1249.500 C 785.399 1246.200 782.656 1242.298 781.891 1240.828 C 781.126 1239.359 779.281 1236.659 777.791 1234.828 C 776.301 1232.998 770.810 1225.650 765.590 1218.500 C 760.369 1211.350 755.244 1204.375 754.201 1203 C 753.157 1201.625 747.443 1193.750 741.502 1185.500 C 735.561 1177.250 728.437 1167.463 725.670 1163.750 L 720.639 1157 709.426 1157 L 698.213 1157 697.464 1173.750 C 696.744 1189.857 697.670 1290.004 698.548 1290.881 C 698.783 1291.116 702.581 1291.473 706.988 1291.675 L 715 1292.040 715 1236.020 C 715 1176.293 714.943 1176.954 719.652 1182.250 C 720.753 1183.487 722.969 1186.525 724.576 1189.001 C 726.184 1191.477 731.550 1198.823 736.500 1205.327 C 751.971 1225.653 759.501 1235.888 762.381 1240.500 C 763.411 1242.150 765.102 1244.400 766.138 1245.500 C 767.174 1246.600 770.559 1251.320 773.661 1255.989 C 776.762 1260.658 781.650 1267.408 784.523 1270.989 C 787.396 1274.570 790.483 1278.948 791.382 1280.717 C 792.281 1282.486 794.744 1285.749 796.854 1287.967 L 800.690 1292 809.095 1291.985 C 813.718 1291.976
    818.056 1291.616 818.736 1291.184 C 819.693 1290.577 820.032 1275.226 820.236 1223.200 L 820.500 1156 811.750 1156 L 803 1156 802.986 1209.250 M 1078.750 1156.743 C 1074.487 1156.931 1071 1157.496 1071 1157.999 C 1071 1159.078 1058.271 1175.957 1053.654 1181 C 1051.891 1182.925 1049.687 1185.625 1048.755 1187 C 1047.824 1188.375 1045.735 1191.300 1044.114 1193.500 C 1042.494 1195.700 1039.667 1199.853 1037.834 1202.730 C 1036 1205.606 1034.022 1207.968 1033.439 1207.980 C 1032.254 1208.002 1016 1187.670 1016 1186.166 C 1016 1185.640 1014.883 1184.150 1013.517 1182.855 C 1012.152 1181.560 1011.027 1180.159 1011.017 1179.741 C 1011.001 1179.031 1007.011 1173.239 1004.281 1169.963 C 1003.611 1169.158 1001.111 1166.025 998.725 1163 L 994.386 1157.500 984.693 1157.214 C 979.096 1157.049 975 1157.325 975 1157.869 C 975 1158.387 976.462 1160.582 978.250 1162.747 C 980.038 1164.912 983.300 1169.264 985.500 1172.418 C 989.051 1177.510 998.554 1189.675 1000.015 1191 C 1000.318 1191.275 1002.327 1193.975 1004.479 1197 C 1006.631 1200.025 1011.678 1206.630 1015.696 1211.678 C 1019.713 1216.727 1023 1221.239 1023 1221.706 C 1023 1222.173 1022.212 1223.285 1021.250 1224.177 C 1018.617 1226.616 1014.996 1231.055 1012.218 1235.250 C 1010.852 1237.313 1009.374 1239 1008.935 1239 C 1008.495 1239 1007.852 1239.890 1007.507 1240.978 C 1007.161 1242.067 1003.869 1246.545 1000.189 1250.931 C
    991.887 1260.827 982.953 1272.532 981.105 1275.932 C 980.337 1277.345 979.427 1278.725 979.082 1279 C 978.738 1279.275 976.289 1282.069 973.641 1285.209 L 968.827 1290.918 971.467 1291.581 C 972.919 1291.945 976.374 1291.943 979.145 1291.575 C 982.641 1291.111 984.657 1291.300 985.732 1292.192 L 987.281 1293.478 993.691 1286.489 C 997.217 1282.645 1000.816 1278.150 1001.689 1276.500 C 1002.562 1274.850 1004.957 1271.475 1007.011 1269 C 1009.065 1266.525 1012.040 1262.459 1013.623 1259.965 C 1015.205 1257.471 1017.059 1254.771 1017.742 1253.965 C 1021.734 1249.255 1027 1241.916 1027 1241.063 C 1027 1239.936 1033.138 1233 1034.135 1233 C 1034.491 1233 1035.053 1234.073 1035.382 1235.385 C 1035.711 1236.697 1038.378 1240.860 1041.309 1244.635 C 1044.240 1248.411 1048.338 1254.088 1050.416 1257.250 C 1052.494 1260.412 1054.528 1263 1054.937 1263 C 1055.345 1263 1056.222 1264.191 1056.885 1265.647 C 1057.548 1267.102 1058.993 1269.465 1060.095 1270.897 C 1061.197 1272.328 1064.319 1276.425 1067.032 1280 C 1075.809 1291.567 1075.768 1291.544 1088.750 1292.275 L 1095 1292.628 1094.997 1290.564 C 1094.995 1289.429 1092.302 1285.391 1089.014 1281.592 C 1085.725 1277.792 1082.771 1273.855 1082.450 1272.842 C 1082.128 1271.829 1081.510 1271 1081.075 1271 C 1080.640 1271 1078.618 1268.300 1076.581 1265 C 1074.544 1261.700 1072.485 1259 1072.006 1259 C 1071.527 1259 1070.876 1258.184
    1070.559 1257.186 C 1070.243 1256.189 1068.525 1253.774 1066.742 1251.819 C 1064.959 1249.864 1061.938 1246.067 1060.029 1243.382 C 1058.120 1240.697 1055.119 1237.006 1053.359 1235.179 C 1051.600 1233.353 1049.452 1230.365 1048.585 1228.538 C 1047.719 1226.712 1046.332 1224.958 1045.505 1224.640 C 1043.380 1223.825 1043.559 1218.313 1045.750 1217.107 C 1046.713 1216.576 1049.750 1213.153 1052.500 1209.499 C 1055.250 1205.845 1059.412 1200.419 1061.750 1197.442 C 1064.088 1194.464 1066 1191.609 1066 1191.097 C 1066 1190.586 1066.402 1190.017 1066.894 1189.833 C 1068.090 1189.388 1076.081 1179.006 1081.199 1171.250 C 1083.467 1167.813 1085.700 1165 1086.161 1165 C 1086.623 1165 1087 1164.325 1087 1163.500 C 1087 1162.675 1087.576 1162 1088.281 1162 C 1088.985 1162 1090.071 1160.650 1090.694 1159 L 1091.826 1156 1089.163 1156.201 C 1087.698 1156.312 1083.013 1156.556 1078.750 1156.743 M 1251.906 1156.721 L 1245.313 1157.084 1244.656 1175.202 C 1243.816 1198.393 1243.816 1252.491 1244.656 1274.631 L 1245.306 1291.763 1250.903 1291.747 C 1253.981 1291.739 1257.971 1292.069 1259.768 1292.482 L 1263.037 1293.232 1262.768 1224.866 L 1262.500 1156.500 1260.500 1156.429 C 1259.400 1156.390 1255.533 1156.522 1251.906 1156.721 M 1430.250 1156.707 L 1423 1157.088 1423 1223.921 C 1423 1276.240 1423.271 1290.951 1424.250 1291.659 C 1424.938 1292.156 1428.763 1292.399 1432.750 1292.199 L
    1440 1291.836 1440 1235.918 C 1440 1196.643 1440.321 1180 1441.077 1180 C 1443.024 1180 1452.709 1191.811 1461.283 1204.642 C 1463.173 1207.470 1465.254 1210.395 1465.907 1211.142 C 1466.559 1211.889 1470.927 1217.650 1475.613 1223.944 C 1480.299 1230.238 1485.453 1236.891 1487.067 1238.729 C 1488.680 1240.566 1490 1242.545 1490 1243.127 C 1490 1243.708 1490.925 1245.380 1492.055 1246.842 C 1498.241 1254.843 1508.094 1268.315 1511.917 1274 C 1514.322 1277.575 1518.361 1283.086 1520.894 1286.246 L 1525.500 1291.993 1535.250 1291.996 L 1545 1292 1545 1224.500 L 1545 1157 1536.552 1157 L 1528.104 1157 1528.029 1206.750 C 1527.989 1234.112 1527.676 1258.879 1527.336 1261.786 C 1526.655 1267.594 1525.327 1268.111 1523.123 1263.426 C 1522.366 1261.817 1520.734 1259.375 1519.495 1258 C 1518.257 1256.625 1516.677 1254.375 1515.984 1253 C 1515.290 1251.625 1514.109 1249.825 1513.359 1249 C 1512.609 1248.175 1510.070 1245.025 1507.717 1242 C 1503.787 1236.949 1502.230 1234.779 1498 1228.461 C 1494.537 1223.288 1490.273 1217.549 1486.904 1213.527 C 1484.926 1211.166 1482.302 1207.606 1481.072 1205.617 C 1479.843 1203.628 1478.424 1202 1477.918 1202 C 1477.413 1202 1477 1201.360 1477 1200.577 C 1477 1199.794 1475.875 1197.816 1474.500 1196.182 C 1473.125 1194.548 1472 1192.939 1472 1192.606 C 1472 1192.273 1471.324 1191.213 1470.498 1190.250 C 1464.799 1183.610 1461.866 1179.754
    1458.519 1174.500 C 1447.854 1157.760 1447.357 1157.225 1442 1156.737 C 1439.525 1156.511 1434.237 1156.498 1430.250 1156.707 M 471.190 1176.702 C 469.919 1178.692 468.512 1182.289 468.062 1184.696 C 467.613 1187.103 466.515 1189.879 465.622 1190.865 C 464.730 1191.851 463.996 1193.297 463.991 1194.079 C 463.986 1194.860 462.875 1197.750 461.522 1200.500 C 460.169 1203.250 459.048 1206.232 459.031 1207.128 C 459.014 1208.023 458.325 1209.315 457.500 1210 C 456.675 1210.685 456 1212.260 456 1213.500 C 456 1214.740 455.325 1216.315 454.500 1217 C 453.675 1217.685 453 1218.893 453 1219.684 C 453 1220.476 451.879 1223.493 450.510 1226.388 C 449.140 1229.283 447.734 1233.080 447.385 1234.826 L 446.750 1238 474.375 1238 C 492.634 1238 502 1237.651 502 1236.972 C 502 1236.406 500.402 1232.468 498.450 1228.222 C 496.497 1223.975 493.703 1217.800 492.240 1214.500 C 490.777 1211.200 489.050 1207.825 488.401 1207 C 487.753 1206.175 486.900 1203.982 486.505 1202.127 C 486.110 1200.271 484.973 1197.346 483.979 1195.627 C 482.984 1193.907 481.605 1190.475 480.913 1188 C 480.221 1185.525 479.133 1182.825 478.495 1182 C 477.857 1181.175 476.564 1178.813 475.621 1176.750 C 474.678 1174.688 473.815 1173.019 473.703 1173.042 C 473.591 1173.066 472.460 1174.713 471.190 1176.702
" stroke="none" fill="#051332" fill-rule="evenodd"/>
  </g>
</svg>
